<?xml version="1.0" encoding="utf-8"?>
<!-- Generator: Adobe Illustrator 15.1.0, SVG Export Plug-In . SVG Version: 6.00 Build 0)  -->
<!DOCTYPE svg PUBLIC "-//W3C//DTD SVG 1.1//EN" "http://www.w3.org/Graphics/SVG/1.1/DTD/svg11.dtd">
<svg version="1.1" id="Layer_1" xmlns="http://www.w3.org/2000/svg" xmlns:xlink="http://www.w3.org/1999/xlink" x="0px" y="0px"
	 width="100px" height="100px" viewBox="0 0 100 100" enable-background="new 0 0 100 100" xml:space="preserve">
<path d="M83.716,30.721c-5.801-7.127-10.003-10.35-14.479-11.363C66.168,18.663,50,18.875,50,18.875s-16.167-0.212-19.235,0.482
	c-4.477,1.014-8.68,4.236-14.48,11.363C7.704,41.263,4.752,53.32,4.688,65.289C4.654,71.624,5.704,77.527,9.775,80.37
	c6.049,4.223,12.139,2.525,18.292-3.185c3.759-3.488,5.833-5.453,10.029-9.152C42.741,63.936,50,63.926,50,63.926
	s7.261,0.01,11.905,4.107c4.195,3.699,6.27,5.664,10.029,9.152c6.152,5.71,12.241,7.407,18.291,3.185
	c4.071-2.843,5.123-8.746,5.086-15.081C95.248,53.32,92.295,41.263,83.716,30.721z M36.943,50.749h-6.224v6.224H24v-6.224h-6.224
	V44.03H24v-6.224h6.719v6.224h6.224V50.749z M70.19,32.08c2.397,0,4.341,1.944,4.341,4.342c0,2.397-1.943,4.341-4.341,4.341
	c-2.398,0-4.342-1.944-4.342-4.341C65.849,34.023,67.792,32.08,70.19,32.08z M61.507,49.446c-2.398,0-4.342-1.944-4.342-4.342
	s1.943-4.342,4.342-4.342s4.342,1.944,4.342,4.342S63.905,49.446,61.507,49.446z M70.19,58.432c-2.398,0-4.342-1.944-4.342-4.342
	c0-2.396,1.943-4.341,4.342-4.341c2.397,0,4.341,1.944,4.341,4.341C74.531,56.487,72.588,58.432,70.19,58.432z M78.873,49.446
	c-2.398,0-4.342-1.945-4.342-4.342c0-2.397,1.943-4.342,4.342-4.342s4.342,1.944,4.342,4.342
	C83.215,47.501,81.271,49.446,78.873,49.446z"/>
</svg>
