<?xml version="1.0" encoding="utf-8"?>
<!-- Generator: Adobe Illustrator 15.1.0, SVG Export Plug-In . SVG Version: 6.00 Build 0)  -->
<!DOCTYPE svg PUBLIC "-//W3C//DTD SVG 1.1//EN" "http://www.w3.org/Graphics/SVG/1.1/DTD/svg11.dtd">
<svg version="1.1" id="Layer_1" xmlns="http://www.w3.org/2000/svg" xmlns:xlink="http://www.w3.org/1999/xlink" x="0px" y="0px"
	 width="200px" height="200px" viewBox="0 0 200 200" enable-background="new 0 0 200 200" xml:space="preserve">
<path fill="#ACACAC" d="M196.875,100c0-53.516-43.359-96.875-96.875-96.875C46.484,3.125,3.125,46.484,3.125,100
	c0,48.352,35.426,88.43,81.738,95.703v-67.699H60.254V100h24.609V78.656c0-24.277,14.453-37.688,36.59-37.688
	c10.602,0,21.688,1.891,21.688,1.891v23.828h-12.219c-12.031,0-15.785,7.469-15.785,15.129V100h26.867l-4.297,28.004h-22.57v67.699
	C161.449,188.43,196.875,148.352,196.875,100z"/>
</svg>
