<?xml version="1.0" encoding="utf-8"?>
<!-- Generator: Adobe Illustrator 15.1.0, SVG Export Plug-In . SVG Version: 6.00 Build 0)  -->
<!DOCTYPE svg PUBLIC "-//W3C//DTD SVG 1.1//EN" "http://www.w3.org/Graphics/SVG/1.1/DTD/svg11.dtd">
<svg version="1.1" id="Layer_1" xmlns="http://www.w3.org/2000/svg" xmlns:xlink="http://www.w3.org/1999/xlink" x="0px" y="0px"
	 width="100px" height="100px" viewBox="0 0 100 100" enable-background="new 0 0 100 100" xml:space="preserve">
<path fill="none" stroke="#000000" stroke-width="5" stroke-miterlimit="10" d="M50.015,27.293h24.038
	c12.063,0,21.842,9.779,21.842,21.841c0,12.062-9.779,21.839-21.842,21.839c-12.061,0-15.578-3.876-18.041-9.087H50h-6.01
	c-2.464,5.211-5.981,9.087-18.043,9.087c-12.062,0-21.841-9.777-21.841-21.839c0-12.062,9.779-21.841,21.841-21.841h24.04"/>
<g>
	<path d="M29.289,55.734c0,1.1-0.9,2-2,2h-2.996c-1.1,0-2-0.9-2-2v-15.17c0-1.1,0.9-2,2-2h2.996c1.1,0,2,0.9,2,2V55.734z"/>
</g>
<g>
	<path d="M18.206,51.647c-1.1,0-2-0.899-2-2v-2.996c0-1.101,0.9-2,2-2l15.17,0.001c1.101,0,2,0.899,2,2v2.995c0,1.101-0.899,2-2,2
		H18.206z"/>
</g>
<circle cx="74.084" cy="39.367" r="4.019"/>
<circle cx="65.244" cy="49.133" r="4.019"/>
<circle cx="74.084" cy="58.813" r="4.019"/>
<circle cx="83.663" cy="49.133" r="4.019"/>
</svg>
