<?xml version="1.0" encoding="utf-8"?>
<!-- Generator: Adobe Illustrator 15.1.0, SVG Export Plug-In . SVG Version: 6.00 Build 0)  -->
<!DOCTYPE svg PUBLIC "-//W3C//DTD SVG 1.1//EN" "http://www.w3.org/Graphics/SVG/1.1/DTD/svg11.dtd">
<svg version="1.1" id="Layer_1" xmlns="http://www.w3.org/2000/svg" xmlns:xlink="http://www.w3.org/1999/xlink" x="0px" y="0px"
	 width="200px" height="200px" viewBox="0 0 200 200" enable-background="new 0 0 200 200" xml:space="preserve">
<path fill="#ACACAC" d="M100.039,55.078c-24.844,0-44.883,20.039-44.883,44.883s20.039,44.883,44.883,44.883
	c24.844,0,44.883-20.039,44.883-44.883S124.883,55.078,100.039,55.078z M100.039,129.141c-16.055,0-29.18-13.086-29.18-29.18
	s13.086-29.18,29.18-29.18c16.094,0,29.18,13.086,29.18,29.18S116.094,129.141,100.039,129.141z M157.227,53.242
	c0,5.82-4.688,10.469-10.469,10.469c-5.82,0-10.469-4.688-10.469-10.469c0-5.781,4.688-10.469,10.469-10.469
	S157.227,47.461,157.227,53.242z M186.953,63.867c-0.664-14.023-3.867-26.445-14.141-36.68
	c-10.234-10.234-22.656-13.438-36.681-14.141c-14.452-0.82-57.773-0.82-72.227,0c-13.984,0.664-26.406,3.867-36.68,14.102
	s-13.438,22.656-14.141,36.68c-0.82,14.453-0.82,57.773,0,72.227c0.664,14.023,3.867,26.445,14.141,36.68
	c10.274,10.236,22.656,13.438,36.68,14.142c14.453,0.819,57.773,0.819,72.227,0c14.022-0.664,26.445-3.867,36.681-14.142
	c10.233-10.233,13.438-22.655,14.141-36.68C187.773,121.602,187.773,78.32,186.953,63.867z M168.281,151.563
	c-3.047,7.656-8.945,13.556-16.641,16.642c-11.523,4.569-38.867,3.517-51.603,3.517c-12.735,0-40.117,1.016-51.602-3.517
	c-7.656-3.047-13.555-8.945-16.641-16.642c-4.57-11.522-3.516-38.867-3.516-51.602c0-12.735-1.016-40.117,3.516-51.602
	c3.047-7.656,8.945-13.555,16.641-16.641c11.523-4.57,38.867-3.516,51.602-3.516c12.735,0,40.116-1.016,51.603,3.516
	c7.655,3.047,13.555,8.945,16.641,16.641c4.57,11.523,3.516,38.867,3.516,51.602C171.797,112.695,172.852,140.078,168.281,151.563z"
	/>
</svg>
