<?xml version="1.0" encoding="utf-8"?>
<!-- Generator: Adobe Illustrator 15.1.0, SVG Export Plug-In . SVG Version: 6.00 Build 0)  -->
<!DOCTYPE svg PUBLIC "-//W3C//DTD SVG 1.1//EN" "http://www.w3.org/Graphics/SVG/1.1/DTD/svg11.dtd">
<svg version="1.1" id="Layer_1" xmlns="http://www.w3.org/2000/svg" xmlns:xlink="http://www.w3.org/1999/xlink" x="0px" y="0px"
	 width="283.46px" height="283.46px" viewBox="0 0 283.46 283.46" enable-background="new 0 0 283.46 283.46" xml:space="preserve">
<polygon fill="#52B95B" stroke="#000000" stroke-width="6" stroke-miterlimit="10" points="12.256,203.487 142.243,258.323 
	272.226,207.104 272.226,174.086 142.243,222.15 12.256,174.086 "/>
<g>
	<path fill="#52B95B" d="M12.654,170.975c-1.465-0.532-1.457-1.379,0.02-1.882l120.981-41.194c1.476-0.502,3.901-0.536,5.391-0.074
		L271.77,168.98c1.488,0.462,1.509,1.277,0.044,1.812l-126.917,46.306c-1.465,0.534-3.862,0.536-5.327,0.004L12.654,170.975z"/>
	<path fill="none" stroke="#000000" stroke-width="6" stroke-miterlimit="10" d="M12.654,170.975
		c-1.465-0.532-1.457-1.379,0.02-1.882l120.981-41.194c1.476-0.502,3.901-0.536,5.391-0.074L271.77,168.98
		c1.488,0.462,1.509,1.277,0.044,1.812l-126.917,46.306c-1.465,0.534-3.862,0.536-5.327,0.004L12.654,170.975z"/>
</g>
<path fill="#77C26A" stroke="#000000" stroke-width="6" stroke-miterlimit="10" d="M77.537,162.426
	c2.031,27.001,45.766,35.069,62.238,35.86c16.39,0.793,60.905-6.975,63.145-33.79c1.846-22.073-21.097-30.341-34.215-35.571
	c-9.745-3.885-40.98-8.523-59.279,1.599C99.317,136.116,76.222,144.962,77.537,162.426z"/>
<polygon fill="#77C26A" stroke="#000000" stroke-width="6" stroke-miterlimit="10" points="129.877,60.694 129.877,149.083 
	151.591,149.083 148.527,60.694 "/>
<ellipse fill="#D12027" stroke="#000000" stroke-width="6" stroke-miterlimit="10" cx="139.029" cy="50.192" rx="25.327" ry="25.667"/>
<ellipse fill="#D12128" stroke="#000000" stroke-width="6" stroke-miterlimit="10" cx="222" cy="170.42" rx="11" ry="6.666"/>
<ellipse fill="#434A9F" stroke="#000000" stroke-width="6" stroke-miterlimit="10" cx="57" cy="170.42" rx="11" ry="6.666"/>
<line fill="none" stroke="#000000" stroke-width="6" stroke-miterlimit="10" x1="142.243" y1="222.15" x2="142.243" y2="258.323"/>
</svg>
