<?xml version="1.0" encoding="utf-8"?>
<!-- Generator: Adobe Illustrator 15.1.0, SVG Export Plug-In . SVG Version: 6.00 Build 0)  -->
<!DOCTYPE svg PUBLIC "-//W3C//DTD SVG 1.1//EN" "http://www.w3.org/Graphics/SVG/1.1/DTD/svg11.dtd">
<svg version="1.1" id="Layer_1" xmlns="http://www.w3.org/2000/svg" xmlns:xlink="http://www.w3.org/1999/xlink" x="0px" y="0px"
	 width="200px" height="200px" viewBox="0 0 200 200" enable-background="new 0 0 200 200" xml:space="preserve">
<path fill="#ACACAC" d="M175,12.5H24.961c-6.875,0-12.461,5.664-12.461,12.617v149.766c0,6.953,5.586,12.617,12.461,12.617H175
	c6.875,0,12.5-5.664,12.5-12.617V25.117C187.5,18.164,181.875,12.5,175,12.5z M65.391,162.5H39.453V78.984H65.43V162.5H65.391z
	 M52.422,67.578c-8.32,0-15.039-6.758-15.039-15.039c0-8.281,6.719-15.039,15.039-15.039c8.281,0,15.039,6.758,15.039,15.039
	C67.461,60.859,60.742,67.578,52.422,67.578z M162.617,162.5H136.68v-40.625c0-9.688-0.195-22.148-13.477-22.148
	c-13.516,0-15.586,10.546-15.586,21.445V162.5H81.68V78.984h24.882V90.39h0.353c3.478-6.563,11.953-13.477,24.569-13.477
	c26.25,0,31.134,17.305,31.134,39.805L162.617,162.5L162.617,162.5z"/>
</svg>
