<?xml version="1.0" encoding="utf-8"?>
<!-- Generator: Adobe Illustrator 15.1.0, SVG Export Plug-In . SVG Version: 6.00 Build 0)  -->
<!DOCTYPE svg PUBLIC "-//W3C//DTD SVG 1.1//EN" "http://www.w3.org/Graphics/SVG/1.1/DTD/svg11.dtd">
<svg version="1.1" id="Layer_1" xmlns="http://www.w3.org/2000/svg" xmlns:xlink="http://www.w3.org/1999/xlink" x="0px" y="0px"
	 width="200px" height="200px" viewBox="0 0 200 200" enable-background="new 0 0 200 200" xml:space="preserve">
<path fill="#ACACAC" d="M179.441,59.264c0.127,1.776,0.127,3.553,0.127,5.33c0,54.187-41.243,116.625-116.625,116.625
	c-23.224,0-44.797-6.727-62.944-18.4c3.3,0.381,6.472,0.508,9.898,0.508c19.162,0,36.802-6.473,50.888-17.514
	c-18.02-0.381-33.122-12.183-38.325-28.426c2.538,0.381,5.076,0.635,7.741,0.635c3.68,0,7.36-0.508,10.787-1.396
	C22.208,112.816,8.122,96.32,8.122,76.396v-0.507c5.457,3.046,11.802,4.949,18.528,5.203C15.608,73.731,8.375,61.167,8.375,46.954
	c0-7.614,2.03-14.594,5.583-20.685c20.178,24.873,50.508,41.117,84.518,42.894c-0.634-3.046-1.015-6.218-1.015-9.391
	c0-22.589,18.273-40.99,40.99-40.99c11.802,0,22.462,4.949,29.949,12.944c9.264-1.776,18.146-5.203,26.016-9.898
	c-3.047,9.518-9.52,17.513-18.021,22.589c8.25-0.888,16.244-3.173,23.604-6.345C194.416,46.193,187.438,53.426,179.441,59.264z"/>
</svg>
